<svg width="19" height="21" viewBox="0 0 19 21" fill="none" xmlns="http://www.w3.org/2000/svg">
<path d="M16.5738 7.71875C16.5738 7.71875 16.0308 14.4537 15.7158 17.2907C15.7077 17.5896 15.6398 17.8838 15.5161 18.156C15.3924 18.4281 15.2154 18.6728 14.9956 18.8754C14.7758 19.0781 14.5177 19.2346 14.2364 19.3358C13.9551 19.4371 13.6563 19.4809 13.3578 19.4648C10.7488 19.5118 8.13681 19.5148 5.52881 19.4598C5.23614 19.4697 4.9444 19.4216 4.67047 19.3181C4.39654 19.2145 4.14588 19.0577 3.93299 18.8566C3.72009 18.6555 3.54921 18.4142 3.43022 18.1466C3.31124 17.879 3.24652 17.5905 3.23981 17.2978C2.92281 14.4358 2.38281 7.71875 2.38281 7.71875" stroke="currentColor" stroke-width="1.5" stroke-miterlimit="10" stroke-linecap="round" stroke-linejoin="round"/>
<path d="M17.958 4.49023H1" stroke="currentColor" stroke-width="1.5" stroke-miterlimit="10" stroke-linecap="round" stroke-linejoin="round"/>
<path d="M14.6925 4.49097C14.3118 4.49077 13.943 4.35878 13.6485 4.11743C13.3541 3.87607 13.1524 3.54023 13.0775 3.16697L12.8345 1.95097C12.7616 1.67864 12.6009 1.438 12.3772 1.2664C12.1535 1.0948 11.8794 1.00185 11.5975 1.00197H7.36953C7.08676 1.00074 6.81155 1.09319 6.58686 1.26487C6.36217 1.43656 6.20065 1.67781 6.12753 1.95097L5.88453 3.16697C5.80969 3.54023 5.60792 3.87607 5.31352 4.11743C5.01911 4.35878 4.65022 4.49077 4.26953 4.49097" stroke="currentColor" stroke-width="1.5" stroke-miterlimit="10" stroke-linecap="round" stroke-linejoin="round"/>
</svg>
