<svg width="40" height="40" viewBox="0 0 40 40" fill="none" xmlns="http://www.w3.org/2000/svg">
<rect x="0.75" y="0.75" width="38.5" height="38.5" rx="5.25" stroke="currentColor" stroke-width="1.5"/>
<path fill-rule="evenodd" clip-rule="evenodd" d="M24.6787 21.2404C24.0528 21.3271 23.5349 21.8792 23.458 22.5064C23.1944 24.6563 21.5995 26.6902 19.5745 27.8226C16.2921 29.6581 12.1433 28.4852 10.3078 25.2029C8.47234 21.9206 9.64522 17.7718 12.9275 15.9363C14.6509 14.9726 16.7514 14.5876 18.551 15.0459C19.177 15.2054 19.8936 14.8915 20.2055 14.3258C20.9222 13.0256 22.1698 11.9122 23.3171 11.2706C25.6502 9.96599 28.6341 10.8622 29.9819 13.2724C31.3296 15.6825 30.5309 18.694 28.1979 19.9987C27.247 20.5304 25.9522 21.0641 24.6787 21.2404Z" fill="currentColor" opacity="0.8"/>
<path fill-rule="evenodd" clip-rule="evenodd" d="M24.0478 20.2419C23.3744 20.2626 22.758 20.8172 22.6647 21.4843C22.4037 23.3503 21.2874 25.3005 19.508 26.2955C16.6982 27.8668 13.5566 26.9216 12.0452 24.2189C10.5338 21.5162 11.5864 18.0514 14.3962 16.4802C15.8634 15.6597 17.5899 15.6433 19.0833 16.1342C19.7223 16.3443 20.4767 16.0195 20.7507 15.4052C21.2207 14.3513 21.9514 13.3592 22.8103 12.8789C24.6767 11.8352 27.0305 12.4926 28.0677 14.3472C29.1048 16.2019 28.4326 18.5515 26.5661 19.5952C25.8619 19.989 24.9572 20.214 24.0478 20.2419Z" fill="currentColor" opacity="0.6"/>
<path fill-rule="evenodd" clip-rule="evenodd" d="M25.4024 22.5507C24.8323 22.5952 24.3532 23.0432 24.279 23.6102C23.947 26.1478 22.5008 28.4714 20.1494 29.7863C16.121 32.039 10.9613 30.4783 8.6249 26.3003C6.28853 22.1223 7.66022 16.9092 11.6887 14.6564C13.686 13.5395 15.9613 13.36 18.0328 13.9722C18.5979 14.1392 19.2205 13.8623 19.497 13.3419C20.2286 11.9648 21.4314 10.8221 22.7751 10.0707C25.7964 8.38114 29.6662 9.55169 31.4185 12.6852C33.1707 15.8187 32.142 19.7285 29.1207 21.4181C28.0346 22.0254 26.72 22.4479 25.4024 22.5507Z" fill="currentColor" opacity="0.4"/>
<path fill-rule="evenodd" clip-rule="evenodd" d="M26.1984 23.9529C25.7828 24.0504 25.4563 24.3773 25.3558 24.7922C24.7235 27.4035 23.0469 29.7542 20.5169 31.169C15.6965 33.8646 9.60368 32.1421 6.90811 27.3218C4.21254 22.5014 5.93501 16.4086 10.7554 13.713C13.0193 12.447 15.564 12.1555 17.9055 12.7018C18.3247 12.7996 18.7669 12.6518 19.0415 12.3203C20.0582 11.0934 21.3561 10.0772 22.6432 9.35741C26.2584 7.33573 30.8281 8.62759 32.8497 12.2428C34.8714 15.8581 33.5796 20.4277 29.9643 22.4494C28.8397 23.0783 27.5415 23.638 26.1984 23.9529Z" fill="currentColor" opacity="0.2"/>
</svg>
