<svg id="Layer_1"
    xmlns="http://www.w3.org/2000/svg"
    xmlns:xlink="http://www.w3.org/1999/xlink" x="0px" y="0px" viewBox="0 0 18 18" xml:space="preserve">
    <path fill="currentColor" opacity="0.5" d="M12.0034 2C11.4735 2.00158 10.9657 2.2128 10.591 2.58753C10.2162 2.96227 10.005 3.47005 10.0034 4C10.005 4.52995 10.2162 5.03773 10.591 5.41247C10.9657 5.7872 11.4735 5.99842 12.0034 6C12.5334 5.99842 13.0412 5.7872 13.4159 5.41247C13.7906 5.03773 14.0018 4.52995 14.0034 4C14.0018 3.47005 13.7906 2.96227 13.4159 2.58753C13.0412 2.2128 12.5334 2.00158 12.0034 2ZM12.0034 12C11.4735 12.0016 10.9657 12.2128 10.591 12.5875C10.2162 12.9623 10.005 13.4701 10.0034 14C10.005 14.5299 10.2162 15.0377 10.591 15.4125C10.9657 15.7872 11.4735 15.9984 12.0034 16C12.5334 15.9984 13.0412 15.7872 13.4159 15.4125C13.7906 15.0377 14.0018 14.5299 14.0034 14C14.0018 13.4701 13.7906 12.9623 13.4159 12.5875C13.0412 12.2128 12.5334 12.0016 12.0034 12Z"></path>
    <path fill="currentColor" d="M3 5C3 4.44772 2.55228 4 2 4C1.44772 4 1 4.44772 1 5V6C1 8.20914 2.79086 10 5 10H6V13L11 9L6 5V8H5C3.89543 8 3 7.10457 3 6V5Z"></path>
    <path fill="currentColor" opacity="0.5" fill-rule="evenodd" clip-rule="evenodd" d="M10.5858 7.58579L12 9L10.5858 10.4142C10.9477 10.7761 11.4477 11 12 11C13.1046 11 14 10.1046 14 9C14 7.89543 13.1046 7 12 7C11.4477 7 10.9477 7.22386 10.5858 7.58579Z"></path>
</svg>