<svg width="24" height="24" viewBox="0 0 24 24" fill="none" xmlns="http://www.w3.org/2000/svg">
<path d="M7.96472 19.4999C7.96472 21.416 6.4122 22.9686 4.49799 22.9686C2.58377 22.9686 1.03125 21.416 1.03125 19.4999C1.03125 17.5838 2.58377 16.0312 4.49799 16.0312C6.4122 16.0312 7.96472 17.5838 7.96472 19.4999Z" stroke="currentColor" stroke-width="2.0625"/>
<path d="M22.9686 19.4999C22.9686 21.416 21.4161 22.9686 19.5019 22.9686C17.5877 22.9686 16.0352 21.416 16.0352 19.4999C16.0352 17.5838 17.5877 16.0312 19.5019 16.0312C21.4161 16.0312 22.9686 17.5838 22.9686 19.4999Z" stroke="currentColor" stroke-width="2.0625"/>
<path d="M7.96472 4.4999C7.96472 6.416 6.4122 7.96855 4.49799 7.96855C2.58377 7.96855 1.03125 6.416 1.03125 4.4999C1.03125 2.5838 2.58377 1.03125 4.49799 1.03125C6.4122 1.03125 7.96472 2.5838 7.96472 4.4999Z" stroke="currentColor" stroke-width="2.0625"/>
<path d="M22.9686 4.4999C22.9686 6.416 21.4161 7.96855 19.5019 7.96855C17.5877 7.96855 16.0352 6.416 16.0352 4.4999C16.0352 2.5838 17.5877 1.03125 19.5019 1.03125C21.4161 1.03125 22.9686 2.5838 22.9686 4.4999Z" stroke="currentColor" stroke-width="2.0625"/>
<path d="M19.5039 16.5L19.6539 7.5002" stroke="currentColor" stroke-width="2.0625"/>
<path d="M7.49219 19.5L16.4882 19.65" stroke="currentColor" stroke-width="2.0625"/>
<path d="M4.5 16.5L4.64997 7.5002" stroke="currentColor" stroke-width="2.0625"/>
<path d="M7.49219 4.5L16.4882 4.65" stroke="currentColor" stroke-width="2.0625"/>
</svg>
